<svg width="24" height="23" viewBox="0 0 24 23" fill="none" xmlns="http://www.w3.org/2000/svg">
<path d="M12.1667 11.2326C12.3795 11.2326 12.5836 11.3171 12.734 11.4676C12.8845 11.618 12.969 11.8221 12.969 12.0349V12.8372H13.7713C13.9841 12.8372 14.1882 12.9217 14.3387 13.0722C14.4891 13.2227 14.5737 13.4267 14.5737 13.6395C14.5737 13.8523 14.4891 14.0564 14.3387 14.2069C14.1882 14.3573 13.9841 14.4419 13.7713 14.4419H12.969V15.2442C12.969 15.457 12.8845 15.6611 12.734 15.8115C12.5836 15.962 12.3795 16.0465 12.1667 16.0465C11.9539 16.0465 11.7498 15.962 11.5994 15.8115C11.4489 15.6611 11.3644 15.457 11.3644 15.2442V14.4419H10.562C10.3492 14.4419 10.1452 14.3573 9.99471 14.2069C9.84424 14.0564 9.75971 13.8523 9.75971 13.6395C9.75971 13.4267 9.84424 13.2227 9.99471 13.0722C10.1452 12.9217 10.3492 12.8372 10.562 12.8372H11.3644V12.0349C11.3644 11.8221 11.4489 11.618 11.5994 11.4676C11.7498 11.3171 11.9539 11.2326 12.1667 11.2326Z" fill="black"/>
<path fill-rule="evenodd" clip-rule="evenodd" d="M12.1667 8.55814C10.819 8.55814 9.52654 9.0935 8.5736 10.0464C7.62065 10.9994 7.08529 12.2919 7.08529 13.6395C7.08529 14.9872 7.62065 16.2797 8.5736 17.2326C9.52654 18.1856 10.819 18.7209 12.1667 18.7209C13.5144 18.7209 14.8068 18.1856 15.7598 17.2326C16.7127 16.2797 17.2481 14.9872 17.2481 13.6395C17.2481 12.2919 16.7127 10.9994 15.7598 10.0464C14.8068 9.0935 13.5144 8.55814 12.1667 8.55814ZM8.68994 13.6395C8.68994 12.7174 9.05624 11.8331 9.70826 11.1811C10.3603 10.5291 11.2446 10.1628 12.1667 10.1628C13.0888 10.1628 13.9731 10.5291 14.6251 11.1811C15.2771 11.8331 15.6434 12.7174 15.6434 13.6395C15.6434 14.5616 15.2771 15.4459 14.6251 16.098C13.9731 16.75 13.0888 17.1163 12.1667 17.1163C11.2446 17.1163 10.3603 16.75 9.70826 16.098C9.05624 15.4459 8.68994 14.5616 8.68994 13.6395Z" fill="black"/>
<path fill-rule="evenodd" clip-rule="evenodd" d="M12.1111 0C11.1493 0 10.3481 4.78223e-08 9.71264 0.0855814C9.04083 0.175442 8.43427 0.374419 7.94752 0.861163C7.45971 1.34898 7.26073 1.95553 7.17087 2.62628C7.10669 3.09698 7.09064 3.65754 7.08636 4.30581C6.39315 4.32828 5.77483 4.37 5.22497 4.44274C3.9712 4.61177 2.95599 4.96693 2.15473 5.76712C1.35455 6.56837 0.999385 7.58358 0.830361 8.83735C0.666687 10.0569 0.666687 11.6134 0.666687 13.5796V13.6994C0.666687 15.6657 0.666687 17.2233 0.830361 18.4417C0.999385 19.6955 1.35455 20.7107 2.15473 21.512C2.95599 22.3121 3.9712 22.6673 5.22497 22.8363C6.4445 23 8.00101 23 9.96725 23H14.3661C16.3324 23 17.8899 23 19.1084 22.8363C20.3622 22.6673 21.3774 22.3121 22.1786 21.512C22.9788 20.7107 23.334 19.6955 23.503 18.4417C23.6667 17.2222 23.6667 15.6657 23.6667 13.6994V13.5796C23.6667 11.6134 23.6667 10.0558 23.503 8.83735C23.334 7.58358 22.9788 6.56837 22.1786 5.76712C21.3774 4.96693 20.3622 4.61177 19.1084 4.44274C18.4905 4.36704 17.8693 4.32134 17.247 4.30581C17.2427 3.65754 17.2256 3.09698 17.1625 2.62628C17.0726 1.95553 16.8737 1.34898 16.3859 0.861163C15.898 0.373349 15.2925 0.176512 14.6207 0.0855814C13.9853 4.78223e-08 13.183 0 12.2223 0H12.1111ZM15.6413 4.28121C15.637 3.67144 15.622 3.21144 15.5728 2.84023C15.5054 2.34707 15.391 2.13526 15.2519 1.99619C15.1128 1.85712 14.901 1.74265 14.4068 1.67526C13.8912 1.60679 13.1979 1.60465 12.1667 1.60465C11.1354 1.60465 10.4422 1.60679 9.92552 1.67633C9.43236 1.74265 9.22055 1.85712 9.08148 1.99726C8.94241 2.1374 8.82794 2.34707 8.76055 2.84023C8.71134 3.21037 8.69636 3.67037 8.69208 4.28121C9.09645 4.27907 9.52151 4.27836 9.96725 4.27907H14.3661C14.8119 4.27907 15.2369 4.27978 15.6413 4.28121ZM3.28976 6.90214C3.74227 6.44963 4.36273 6.17791 5.43892 6.03349C6.53864 5.88586 7.98711 5.88372 10.0272 5.88372H14.3062C16.3463 5.88372 17.7958 5.88586 18.8955 6.03349C19.9706 6.17791 20.5911 6.44963 21.0436 6.90214C21.4961 7.35465 21.7679 7.97512 21.9123 9.0513C22.0599 10.15 22.062 11.5995 22.062 13.6395C22.062 15.6796 22.0599 17.1291 21.9123 18.2288C21.7679 19.304 21.4961 19.9244 21.0436 20.3769C20.5911 20.8294 19.9706 21.1012 18.8945 21.2456C17.7958 21.3932 16.3463 21.3953 14.3062 21.3953H10.0272C7.98711 21.3953 6.53864 21.3932 5.43785 21.2456C4.36273 21.1012 3.74227 20.8294 3.28976 20.3769C2.83724 19.9244 2.56552 19.304 2.42111 18.2278C2.27348 17.1291 2.27134 15.6796 2.27134 13.6395C2.27134 11.5995 2.27348 10.151 2.42111 9.05023C2.56552 7.97512 2.83724 7.35465 3.28976 6.90214Z" fill="black"/>
</svg>
