<svg width="18" height="17" viewBox="0 0 18 17" fill="none" xmlns="http://www.w3.org/2000/svg">
<path d="M9.8802 8.6879V5.50454C9.8802 5.254 9.7957 5.04414 9.6267 4.87495C9.4577 4.70576 9.2488 4.62087 9 4.62028C8.7512 4.61969 8.5423 4.70458 8.3733 4.87495C8.2043 5.04532 8.1198 5.25518 8.1198 5.50454V9.0195C8.1198 9.1374 8.14181 9.25176 8.18582 9.36259C8.22983 9.47342 8.29584 9.57275 8.38386 9.66059L10.8484 12.1365C11.0098 12.2986 11.2152 12.3797 11.4645 12.3797C11.7139 12.3797 11.9193 12.2986 12.0807 12.1365C12.2421 11.9744 12.3227 11.7681 12.3227 11.5175C12.3227 11.267 12.2421 11.0607 12.0807 10.8986L9.8802 8.6879ZM9 17C7.89976 17 6.86934 16.7901 5.90875 16.3704C4.94817 15.9507 4.11198 15.3833 3.4002 14.6682C2.68841 13.9531 2.12362 13.113 1.70582 12.148C1.28802 11.183 1.07883 10.1475 1.07824 9.0416C1.07765 7.93568 1.28685 6.9005 1.70582 5.93607C2.12479 4.97163 2.68929 4.13158 3.39932 3.41591C4.10934 2.70025 4.94553 2.13285 5.90787 1.7137C6.87022 1.29456 7.90093 1.0844 9 1.08322C10.0991 1.08204 11.1298 1.2922 12.0921 1.7137C13.0545 2.1352 13.8907 2.70261 14.6007 3.41591C15.3107 4.12922 15.8755 4.96927 16.2951 5.93607C16.7146 6.90286 16.9235 7.93804 16.9218 9.0416C16.92 10.1452 16.7111 11.1806 16.2951 12.148C15.879 13.1154 15.3142 13.9555 14.6007 14.6682C13.8871 15.3809 13.051 15.9483 12.0921 16.3704C11.1333 16.7925 10.1026 17.0023 9 17ZM0.242054 4.0013C0.0806846 3.83918 0 3.63285 0 3.38231C0 3.13177 0.0806846 2.92544 0.242054 2.76333L2.75061 0.243173C2.91198 0.0810574 3.11736 0 3.36675 0C3.61614 0 3.82152 0.0810574 3.98288 0.243173C4.14425 0.405288 4.22494 0.611616 4.22494 0.862158C4.22494 1.1127 4.14425 1.31903 3.98288 1.48114L1.47433 4.0013C1.31296 4.16341 1.10758 4.24447 0.858191 4.24447C0.608802 4.24447 0.403423 4.16341 0.242054 4.0013ZM17.7579 4.0013C17.5966 4.16341 17.3912 4.24447 17.1418 4.24447C16.8924 4.24447 16.687 4.16341 16.5257 4.0013L14.0171 1.48114C13.8557 1.31903 13.7751 1.1127 13.7751 0.862158C13.7751 0.611616 13.8557 0.405288 14.0171 0.243173C14.1785 0.0810574 14.3839 0 14.6333 0C14.8826 0 15.088 0.0810574 15.2494 0.243173L17.7579 2.76333C17.9193 2.92544 18 3.13177 18 3.38231C18 3.63285 17.9193 3.83918 17.7579 4.0013ZM9 15.2315C10.7164 15.2315 12.1725 14.631 13.3684 13.4302C14.5643 12.2294 15.162 10.7665 15.1614 9.0416C15.1608 7.3167 14.5631 5.85412 13.3684 4.65388C12.1737 3.45364 10.7176 2.85293 9 2.85175C7.28244 2.85057 5.8266 3.45128 4.63247 4.65388C3.43834 5.85648 2.84039 7.31906 2.83863 9.0416C2.83687 10.7641 3.43482 12.227 4.63247 13.4302C5.83012 14.6334 7.28597 15.2338 9 15.2315Z" fill="#00A6D5"/>
</svg>
