<svg width="18" height="18" viewBox="0 0 18 18" fill="none" xmlns="http://www.w3.org/2000/svg">
<path fill-rule="evenodd" clip-rule="evenodd" d="M8.95228 0H10.2558C10.4223 0 10.5821 0.0661543 10.6998 0.18391C10.8176 0.301665 10.8837 0.461376 10.8837 0.627907C10.8837 0.794438 10.8176 0.954149 10.6998 1.0719C10.5821 1.18966 10.4223 1.25581 10.2558 1.25581H9C7.00912 1.25581 5.57916 1.25749 4.49079 1.40316C3.42 1.54716 2.77451 1.82177 2.2973 2.29814C1.82093 2.77535 1.54716 3.42 1.40316 4.49079C1.25749 5.57916 1.25581 7.00912 1.25581 9C1.25581 10.9909 1.25749 12.4208 1.40316 13.5092C1.54716 14.58 1.82177 15.2255 2.29814 15.7027C2.77535 16.1791 3.42 16.4528 4.49079 16.5968C5.57916 16.7425 7.00912 16.7442 9 16.7442C10.9909 16.7442 12.4208 16.7425 13.5092 16.5968C14.58 16.4528 15.2255 16.1782 15.7027 15.7019C16.1791 15.2247 16.4528 14.58 16.5968 13.5092C16.7425 12.4208 16.7442 10.9909 16.7442 9V7.74419C16.7442 7.57765 16.8103 7.41794 16.9281 7.30019C17.0459 7.18243 17.2056 7.11628 17.3721 7.11628C17.5386 7.11628 17.6983 7.18243 17.8161 7.30019C17.9338 7.41794 18 7.57765 18 7.74419V9.04772C18 10.9808 18 12.4953 17.8409 13.6775C17.6785 14.8864 17.3386 15.8408 16.5901 16.5901C15.8408 17.3394 14.8864 17.6785 13.6767 17.8409C12.4953 18 10.9808 18 9.04772 18H8.95228C7.01916 18 5.50465 18 4.32251 17.8409C3.11358 17.6785 2.15916 17.3386 1.40986 16.5901C0.660558 15.8408 0.321488 14.8864 0.15907 13.6767C4.99016e-08 12.4953 0 10.9808 0 9.04772V8.95228C0 7.01916 4.99016e-08 5.50465 0.15907 4.32251C0.321488 3.11358 0.661395 2.15916 1.40986 1.40986C2.15916 0.660558 3.11358 0.321488 4.32335 0.15907C5.50465 4.99016e-08 7.01916 0 8.95228 0ZM12.9935 0.858977C13.546 0.321696 14.2878 0.0234814 15.0584 0.0288237C15.8291 0.0341661 16.5666 0.342636 17.1116 0.887525C17.6566 1.43241 17.9653 2.16993 17.9708 2.94058C17.9763 3.71122 17.6782 4.45306 17.141 5.00567L11.5753 10.5723C11.2647 10.882 11.0696 11.078 10.8527 11.2471C10.5968 11.447 10.3197 11.6183 10.0264 11.7578C9.77777 11.8758 9.51572 11.9629 9.09963 12.1019L6.66753 12.9123C6.4475 12.9856 6.2114 12.9961 5.98569 12.9428C5.75998 12.8895 5.55357 12.7744 5.38958 12.6104C5.22559 12.4464 5.11049 12.24 5.05718 12.0143C5.00386 11.7886 5.01444 11.5525 5.08772 11.3325L5.89814 8.90037C6.03712 8.48344 6.12419 8.22223 6.24223 7.97358C6.38288 7.68 6.55312 7.40456 6.75293 7.14726C6.92205 6.92958 7.11712 6.73535 7.42772 6.42474L12.9935 0.858977ZM16.2527 1.74642C15.9383 1.4321 15.5119 1.25554 15.0673 1.25554C14.6226 1.25554 14.1962 1.4321 13.8818 1.74642L13.567 2.06205C13.5848 2.14298 13.6122 2.2373 13.649 2.34502C13.7687 2.69079 13.9965 3.14623 14.4251 3.57488C14.8425 3.99245 15.3654 4.28902 15.938 4.43302L16.2527 4.11823C16.5671 3.80377 16.7436 3.37736 16.7436 2.93274C16.7436 2.48813 16.5671 2.06088 16.2527 1.74642ZM14.9484 5.42344C14.4212 5.19615 13.9422 4.87053 13.5368 4.464C13.1303 4.05867 12.8047 3.57962 12.5774 3.05246L8.3453 7.28372C7.99619 7.63284 7.85972 7.77098 7.74251 7.92C7.60019 8.10485 7.47757 8.30408 7.37665 8.51442C7.2946 8.68437 7.23265 8.86856 7.07609 9.33656L6.71526 10.4207L7.57926 11.2856L8.66344 10.9239C9.13228 10.7673 9.31563 10.7054 9.48642 10.6242C9.6974 10.5237 9.89553 10.4012 10.0808 10.2567C10.229 10.1403 10.3672 10.0038 10.7163 9.65553L14.9484 5.42344Z" fill="black"/>
</svg>
