<svg width="24" height="23" viewBox="0 0 24 23" fill="none" xmlns="http://www.w3.org/2000/svg">
<path fill-rule="evenodd" clip-rule="evenodd" d="M0.884802 6.75625C0.263802 8.0523 0.482302 9.56915 0.919302 12.6017L1.239 14.8293C1.79905 18.7255 2.07965 20.6724 3.4309 21.8362C4.78215 23 6.7636 23 10.7277 23H13.2715C17.2355 23 19.217 23 20.5682 21.8362C21.9195 20.6724 22.2001 18.7255 22.7601 14.8293L23.081 12.6017C23.518 9.56915 23.7365 8.0523 23.1143 6.75625C22.4922 5.4602 21.1697 4.6713 18.5235 3.0958L16.9308 2.14705C14.5296 0.7153 13.3267 0 11.9996 0C10.6725 0 9.4707 0.7153 7.06835 2.14705L5.4756 3.0958C2.8306 4.6713 1.50695 5.4602 0.884802 6.75625ZM7.68705 18.4C7.68705 18.1713 7.77792 17.9519 7.93967 17.7901C8.10142 17.6284 8.3208 17.5375 8.54955 17.5375H15.4496C15.6783 17.5375 15.8977 17.6284 16.0594 17.7901C16.2212 17.9519 16.3121 18.1713 16.3121 18.4C16.3121 18.6287 16.2212 18.8481 16.0594 19.0099C15.8977 19.1716 15.6783 19.2625 15.4496 19.2625H8.54955C8.3208 19.2625 8.10142 19.1716 7.93967 19.0099C7.77792 18.8481 7.68705 18.6287 7.68705 18.4Z" fill="#076BFF"/>
</svg>
