<svg width="32" height="32" viewBox="0 0 32 32" fill="none" xmlns="http://www.w3.org/2000/svg">
<path d="M14.8333 24H26.6667C27.4 24 28 23.4 28 22.6667C28 21.9333 27.4 21.3333 26.6667 21.3333H14.8333C14.1 21.3333 13.5 21.9333 13.5 22.6667C13.5 23.4 14.1 24 14.8333 24ZM5.33333 17.3333H26.6667C27.4 17.3333 28 16.7333 28 16C28 15.2667 27.4 14.6667 26.6667 14.6667H5.33333C4.6 14.6667 4 15.2667 4 16C4 16.7333 4.6 17.3333 5.33333 17.3333ZM7.66667 9.33333C7.66667 10.0667 8.26667 10.6667 9 10.6667H26.6667C27.4 10.6667 28 10.0667 28 9.33333C28 8.6 27.4 8 26.6667 8H9C8.26667 8 7.66667 8.6 7.66667 9.33333Z" fill="white"/>
</svg>
