<svg width="24" height="23" viewBox="0 0 24 23" fill="none" xmlns="http://www.w3.org/2000/svg">
<path fill-rule="evenodd" clip-rule="evenodd" d="M7.98837 8.2907C7.98837 7.22675 8.41102 6.20637 9.16335 5.45405C9.91568 4.70172 10.9361 4.27907 12 4.27907C13.064 4.27907 14.0843 4.70172 14.8366 5.45405C15.589 6.20637 16.0116 7.22675 16.0116 8.2907C16.0116 9.35465 15.589 10.375 14.8366 11.1273C14.0843 11.8797 13.064 12.3023 12 12.3023C10.9361 12.3023 9.91568 11.8797 9.16335 11.1273C8.41102 10.375 7.98837 9.35465 7.98837 8.2907ZM12 5.88372C11.3616 5.88372 10.7494 6.13731 10.298 6.58871C9.84661 7.0401 9.59302 7.65233 9.59302 8.2907C9.59302 8.92907 9.84661 9.54129 10.298 9.99269C10.7494 10.4441 11.3616 10.6977 12 10.6977C12.6384 10.6977 13.2506 10.4441 13.702 9.99269C14.1534 9.54129 14.407 8.92907 14.407 8.2907C14.407 7.65233 14.1534 7.0401 13.702 6.58871C13.2506 6.13731 12.6384 5.88372 12 5.88372Z" fill="black"/>
<path fill-rule="evenodd" clip-rule="evenodd" d="M0.5 11.5C0.5 5.14879 5.64879 0 12 0C18.3512 0 23.5 5.14879 23.5 11.5C23.5 17.8512 18.3512 23 12 23C5.64879 23 0.5 17.8512 0.5 11.5ZM12 1.60465C10.0452 1.60474 8.13423 2.18381 6.50818 3.26879C4.88213 4.35377 3.61387 5.89605 2.8634 7.70105C2.11293 9.50605 1.91388 11.4929 2.29137 13.4109C2.66885 15.3289 3.60597 17.0921 4.98447 18.4781C5.17702 17.4372 5.55679 16.4562 6.3174 15.6667C7.4567 14.4857 9.27637 13.907 12 13.907C14.7236 13.907 16.5433 14.4857 17.6815 15.6667C18.4432 16.4562 18.8219 17.4383 19.0155 18.4792C20.3944 17.0932 21.3318 15.3299 21.7095 13.4117C22.0872 11.4936 21.8883 9.50647 21.1378 7.70125C20.3872 5.89604 19.1188 4.35359 17.4925 3.26855C15.8663 2.18352 13.955 1.60453 12 1.60465ZM17.5564 19.6891C17.4473 18.3925 17.1659 17.4426 16.5273 16.7804C15.8319 16.0604 14.545 15.5116 12 15.5116C9.45502 15.5116 8.16809 16.0604 7.47274 16.7804C6.83409 17.4436 6.55274 18.3925 6.44363 19.6901C8.08186 20.8049 10.0184 21.3993 12 21.3953C13.9817 21.399 15.9183 20.8043 17.5564 19.6891Z" fill="black"/>
</svg>
