<svg width="20" height="23" viewBox="0 0 20 23" fill="none" xmlns="http://www.w3.org/2000/svg">
<path fill-rule="evenodd" clip-rule="evenodd" d="M7.08331 1.5C7.08331 1.30109 7.16233 1.11032 7.30298 0.96967C7.44364 0.829018 7.6344 0.75 7.83331 0.75H11.8333C12.0322 0.75 12.223 0.829018 12.3636 0.96967C12.5043 1.11032 12.5833 1.30109 12.5833 1.5C12.5833 1.69891 12.5043 1.88968 12.3636 2.03033C12.223 2.17098 12.0322 2.25 11.8333 2.25H7.83331C7.6344 2.25 7.44364 2.17098 7.30298 2.03033C7.16233 1.88968 7.08331 1.69891 7.08331 1.5ZM9.83331 4.25C7.64528 4.25 5.54686 5.11919 3.99968 6.66637C2.45251 8.21354 1.58331 10.312 1.58331 12.5C1.58331 14.688 2.45251 16.7865 3.99968 18.3336C5.54686 19.8808 7.64528 20.75 9.83331 20.75C12.0213 20.75 14.1198 19.8808 15.6669 18.3336C17.2141 16.7865 18.0833 14.688 18.0833 12.5C18.0833 10.312 17.2141 8.21354 15.6669 6.66637C14.1198 5.11919 12.0213 4.25 9.83331 4.25ZM0.083313 12.5C0.083313 7.115 4.44831 2.75 9.83331 2.75C15.2183 2.75 19.5833 7.115 19.5833 12.5C19.5833 17.885 15.2183 22.25 9.83331 22.25C4.44831 22.25 0.083313 17.885 0.083313 12.5ZM9.83331 7.75C10.0322 7.75 10.223 7.82902 10.3636 7.96967C10.5043 8.11032 10.5833 8.30109 10.5833 8.5V12.5C10.5833 12.6989 10.5043 12.8897 10.3636 13.0303C10.223 13.171 10.0322 13.25 9.83331 13.25C9.6344 13.25 9.44364 13.171 9.30298 13.0303C9.16233 12.8897 9.08331 12.6989 9.08331 12.5V8.5C9.08331 8.30109 9.16233 8.11032 9.30298 7.96967C9.44364 7.82902 9.6344 7.75 9.83331 7.75Z" fill="black"/>
</svg>
