<svg width="19" height="19" viewBox="0 0 19 19" fill="none" xmlns="http://www.w3.org/2000/svg">
<path d="M14.3145 13.0829C12.3808 12.3631 10.648 11.19 9.26153 9.66193C7.73386 8.27531 6.56106 6.54251 5.84153 4.60893M9.47453 4.60893C9.71248 4.36932 9.99548 4.17915 10.3072 4.04938C10.619 3.9196 10.9533 3.85279 11.291 3.85279C11.6287 3.85279 11.9631 3.9196 12.2748 4.04938C12.5866 4.17915 12.8696 4.36932 13.1075 4.60893M7.66453 2.78593L2.81953 7.63193C2.24931 8.18517 1.7948 8.84629 1.48246 9.57682C1.17012 10.3074 1.00617 11.0927 1.00017 11.8872C0.994168 12.6817 1.14622 13.4694 1.44749 14.2046C1.74876 14.9397 2.19322 15.6076 2.75502 16.1694C3.31681 16.7312 3.98473 17.1757 4.71989 17.477C5.45506 17.7782 6.2428 17.9303 7.03728 17.9243C7.83175 17.9183 8.61711 17.7543 9.34764 17.442C10.0782 17.1297 10.7393 16.6752 11.2925 16.1049L16.1375 11.2599C17.2418 10.1323 17.8566 8.61457 17.8484 7.03632C17.8402 5.45807 17.2097 3.94678 16.0937 2.83071C14.9778 1.71463 13.4666 1.08391 11.8883 1.07552C10.3101 1.06714 8.79226 1.68177 7.66453 2.78593Z" stroke="#BB00FF" stroke-width="1.5" stroke-linecap="round" stroke-linejoin="round"/>
</svg>
