<svg width="20" height="23" viewBox="0 0 20 23" fill="none" xmlns="http://www.w3.org/2000/svg">
<path fill-rule="evenodd" clip-rule="evenodd" d="M7 1.5C7 1.30109 7.07902 1.11032 7.21967 0.96967C7.36032 0.829018 7.55109 0.75 7.75 0.75H11.75C11.9489 0.75 12.1397 0.829018 12.2803 0.96967C12.421 1.11032 12.5 1.30109 12.5 1.5C12.5 1.69891 12.421 1.88968 12.2803 2.03033C12.1397 2.17098 11.9489 2.25 11.75 2.25H7.75C7.55109 2.25 7.36032 2.17098 7.21967 2.03033C7.07902 1.88968 7 1.69891 7 1.5ZM9.75 4.25C7.56196 4.25 5.46354 5.11919 3.91637 6.66637C2.36919 8.21354 1.5 10.312 1.5 12.5C1.5 14.688 2.36919 16.7865 3.91637 18.3336C5.46354 19.8808 7.56196 20.75 9.75 20.75C11.938 20.75 14.0365 19.8808 15.5836 18.3336C17.1308 16.7865 18 14.688 18 12.5C18 10.312 17.1308 8.21354 15.5836 6.66637C14.0365 5.11919 11.938 4.25 9.75 4.25ZM0 12.5C0 7.115 4.365 2.75 9.75 2.75C15.135 2.75 19.5 7.115 19.5 12.5C19.5 17.885 15.135 22.25 9.75 22.25C4.365 22.25 0 17.885 0 12.5ZM9.75 7.75C9.94891 7.75 10.1397 7.82902 10.2803 7.96967C10.421 8.11032 10.5 8.30109 10.5 8.5V12.5C10.5 12.6989 10.421 12.8897 10.2803 13.0303C10.1397 13.171 9.94891 13.25 9.75 13.25C9.55109 13.25 9.36032 13.171 9.21967 13.0303C9.07902 12.8897 9 12.6989 9 12.5V8.5C9 8.30109 9.07902 8.11032 9.21967 7.96967C9.36032 7.82902 9.55109 7.75 9.75 7.75Z" fill="#008668"/>
</svg>
